<mxfile host="Electron" agent="Mozilla/5.0 (Windows NT 10.0; Win64; x64) AppleWebKit/537.36 (KHTML, like Gecko) draw.io/28.1.2 Chrome/138.0.7204.243 Electron/37.4.0 Safari/537.36" version="28.1.2">
  <diagram name="PÃ¡gina-1" id="1oVLrVMSLy8Gs3GNG_iD">
    <mxGraphModel dx="872" dy="537" grid="1" gridSize="10" guides="1" tooltips="1" connect="1" arrows="1" fold="1" page="1" pageScale="1" pageWidth="827" pageHeight="1169" math="0" shadow="0">
      <root>
        <mxCell id="0" />
        <mxCell id="1" parent="0" />
        <mxCell id="CSlSsVyFQcHGm--J2eXU-1" value="CLIENTE" style="rounded=1;whiteSpace=wrap;html=1;" vertex="1" parent="1">
          <mxGeometry x="170.01" y="100" width="80" height="50" as="geometry" />
        </mxCell>
        <mxCell id="CSlSsVyFQcHGm--J2eXU-2" value="MESA" style="rounded=1;whiteSpace=wrap;html=1;" vertex="1" parent="1">
          <mxGeometry x="620.01" y="100" width="80" height="50" as="geometry" />
        </mxCell>
        <mxCell id="CSlSsVyFQcHGm--J2eXU-3" value="PEDIDO" style="rounded=1;whiteSpace=wrap;html=1;" vertex="1" parent="1">
          <mxGeometry x="400.01" y="100" width="80" height="50" as="geometry" />
        </mxCell>
        <mxCell id="CSlSsVyFQcHGm--J2eXU-4" value="PLATO" style="rounded=1;whiteSpace=wrap;html=1;" vertex="1" parent="1">
          <mxGeometry x="320" y="260" width="80" height="50" as="geometry" />
        </mxCell>
        <mxCell id="CSlSsVyFQcHGm--J2eXU-5" value="DETALLE&lt;div&gt;PEDIDO&lt;/div&gt;" style="rounded=1;whiteSpace=wrap;html=1;" vertex="1" parent="1">
          <mxGeometry x="480" y="260" width="80" height="50" as="geometry" />
        </mxCell>
        <mxCell id="CSlSsVyFQcHGm--J2eXU-6" value="id_cliente PK" style="ellipse;whiteSpace=wrap;html=1;" vertex="1" parent="1">
          <mxGeometry x="175.01" y="40" width="70" height="40" as="geometry" />
        </mxCell>
        <mxCell id="CSlSsVyFQcHGm--J2eXU-7" value="nombre&lt;span style=&quot;color: rgba(0, 0, 0, 0); font-family: monospace; font-size: 0px; text-align: start; text-wrap-mode: nowrap;&quot;&gt;%3CmxGraphModel%3E%3Croot%3E%3CmxCell%20id%3D%220%22%2F%3E%3CmxCell%20id%3D%221%22%20parent%3D%220%22%2F%3E%3CmxCell%20id%3D%222%22%20value%3D%22id_cliente%22%20style%3D%22ellipse%3BwhiteSpace%3Dwrap%3Bhtml%3D1%3B%22%20vertex%3D%221%22%20parent%3D%221%22%3E%3CmxGeometry%20x%3D%22320%22%20y%3D%2270%22%20width%3D%2270%22%20height%3D%2240%22%20as%3D%22geometry%22%2F%3E%3C%2FmxCell%3E%3C%2Froot%3E%3C%2FmxGraphModel%3E&lt;/span&gt;&lt;span style=&quot;color: rgba(0, 0, 0, 0); font-family: monospace; font-size: 0px; text-align: start; text-wrap-mode: nowrap;&quot;&gt;%3CmxGraphModel%3E%3Croot%3E%3CmxCell%20id%3D%220%22%2F%3E%3CmxCell%20id%3D%221%22%20parent%3D%220%22%2F%3E%3CmxCell%20id%3D%222%22%20value%3D%22id_cliente%22%20style%3D%22ellipse%3BwhiteSpace%3Dwrap%3Bhtml%3D1%3B%22%20vertex%3D%221%22%20parent%3D%221%22%3E%3CmxGeometry%20x%3D%22320%22%20y%3D%2270%22%20width%3D%2270%22%20height%3D%2240%22%20as%3D%22geometry%22%2F%3E%3C%2FmxCell%3E%3C%2Froot%3E%3C%2FmxGraphModel%3E&lt;/span&gt;&lt;span style=&quot;color: rgba(0, 0, 0, 0); font-family: monospace; font-size: 0px; text-align: start; text-wrap-mode: nowrap;&quot;&gt;%3CmxGraphModel%3E%3Croot%3E%3CmxCell%20id%3D%220%22%2F%3E%3CmxCell%20id%3D%221%22%20parent%3D%220%22%2F%3E%3CmxCell%20id%3D%222%22%20value%3D%22id_cliente%22%20style%3D%22ellipse%3BwhiteSpace%3Dwrap%3Bhtml%3D1%3B%22%20vertex%3D%221%22%20parent%3D%221%22%3E%3CmxGeometry%20x%3D%22320%22%20y%3D%2270%22%20width%3D%2270%22%20height%3D%2240%22%20as%3D%22geometry%22%2F%3E%3C%2FmxCell%3E%3C%2Froot%3E%3C%2FmxGraphModel%3E&lt;/span&gt;" style="ellipse;whiteSpace=wrap;html=1;" vertex="1" parent="1">
          <mxGeometry x="225.01" y="160" width="70" height="40" as="geometry" />
        </mxCell>
        <mxCell id="CSlSsVyFQcHGm--J2eXU-8" value="telefono" style="ellipse;whiteSpace=wrap;html=1;" vertex="1" parent="1">
          <mxGeometry x="135.01" y="160" width="70" height="40" as="geometry" />
        </mxCell>
        <mxCell id="CSlSsVyFQcHGm--J2eXU-9" value="id_mesa PK" style="ellipse;whiteSpace=wrap;html=1;" vertex="1" parent="1">
          <mxGeometry x="625.01" y="40" width="70" height="40" as="geometry" />
        </mxCell>
        <mxCell id="CSlSsVyFQcHGm--J2eXU-10" value="numero" style="ellipse;whiteSpace=wrap;html=1;" vertex="1" parent="1">
          <mxGeometry x="665.01" y="160" width="70" height="40" as="geometry" />
        </mxCell>
        <mxCell id="CSlSsVyFQcHGm--J2eXU-11" value="capacidad" style="ellipse;whiteSpace=wrap;html=1;" vertex="1" parent="1">
          <mxGeometry x="585.01" y="160" width="70" height="40" as="geometry" />
        </mxCell>
        <mxCell id="CSlSsVyFQcHGm--J2eXU-12" value="id_pedido PK" style="ellipse;whiteSpace=wrap;html=1;" vertex="1" parent="1">
          <mxGeometry x="360.01" y="40" width="70" height="40" as="geometry" />
        </mxCell>
        <mxCell id="CSlSsVyFQcHGm--J2eXU-13" value="fecha" style="ellipse;whiteSpace=wrap;html=1;" vertex="1" parent="1">
          <mxGeometry x="450.01" y="40" width="70" height="40" as="geometry" />
        </mxCell>
        <mxCell id="CSlSsVyFQcHGm--J2eXU-14" value="id_cliente FK" style="ellipse;whiteSpace=wrap;html=1;" vertex="1" parent="1">
          <mxGeometry x="350.01" y="160" width="70" height="40" as="geometry" />
        </mxCell>
        <mxCell id="CSlSsVyFQcHGm--J2eXU-15" value="id_mesa FK" style="ellipse;whiteSpace=wrap;html=1;" vertex="1" parent="1">
          <mxGeometry x="465.01" y="160" width="70" height="40" as="geometry" />
        </mxCell>
        <mxCell id="CSlSsVyFQcHGm--J2eXU-16" value="id_plato PK" style="ellipse;whiteSpace=wrap;html=1;" vertex="1" parent="1">
          <mxGeometry x="235.01" y="270" width="70" height="40" as="geometry" />
        </mxCell>
        <mxCell id="CSlSsVyFQcHGm--J2eXU-17" value="nombre" style="ellipse;whiteSpace=wrap;html=1;" vertex="1" parent="1">
          <mxGeometry x="320" y="330" width="70" height="40" as="geometry" />
        </mxCell>
        <mxCell id="CSlSsVyFQcHGm--J2eXU-18" value="precio" style="ellipse;whiteSpace=wrap;html=1;" vertex="1" parent="1">
          <mxGeometry x="240" y="330" width="70" height="40" as="geometry" />
        </mxCell>
        <mxCell id="CSlSsVyFQcHGm--J2eXU-19" value="Realiza" style="rhombus;whiteSpace=wrap;html=1;" vertex="1" parent="1">
          <mxGeometry x="300.01" y="95" width="60" height="60" as="geometry" />
        </mxCell>
        <mxCell id="CSlSsVyFQcHGm--J2eXU-20" value="" style="endArrow=classic;html=1;rounded=0;exitX=1;exitY=0.5;exitDx=0;exitDy=0;entryX=0;entryY=0.5;entryDx=0;entryDy=0;" edge="1" parent="1" source="CSlSsVyFQcHGm--J2eXU-1" target="CSlSsVyFQcHGm--J2eXU-19">
          <mxGeometry width="50" height="50" relative="1" as="geometry">
            <mxPoint x="265.01" y="130" as="sourcePoint" />
            <mxPoint x="315.01" y="80" as="targetPoint" />
          </mxGeometry>
        </mxCell>
        <mxCell id="CSlSsVyFQcHGm--J2eXU-21" value="" style="endArrow=classic;html=1;rounded=0;exitX=1;exitY=0.5;exitDx=0;exitDy=0;" edge="1" parent="1" source="CSlSsVyFQcHGm--J2eXU-19" target="CSlSsVyFQcHGm--J2eXU-3">
          <mxGeometry width="50" height="50" relative="1" as="geometry">
            <mxPoint x="370.01" y="130" as="sourcePoint" />
            <mxPoint x="420.01" y="80" as="targetPoint" />
          </mxGeometry>
        </mxCell>
        <mxCell id="CSlSsVyFQcHGm--J2eXU-22" value="1:N" style="text;html=1;align=center;verticalAlign=middle;whiteSpace=wrap;rounded=0;" vertex="1" parent="1">
          <mxGeometry x="302.51" y="75" width="55" height="20" as="geometry" />
        </mxCell>
        <mxCell id="CSlSsVyFQcHGm--J2eXU-23" value="Ocupar" style="rhombus;whiteSpace=wrap;html=1;" vertex="1" parent="1">
          <mxGeometry x="520.01" y="95" width="60" height="60" as="geometry" />
        </mxCell>
        <mxCell id="CSlSsVyFQcHGm--J2eXU-24" value="" style="endArrow=classic;html=1;rounded=0;exitX=1;exitY=0.5;exitDx=0;exitDy=0;entryX=0;entryY=0.5;entryDx=0;entryDy=0;" edge="1" parent="1" source="CSlSsVyFQcHGm--J2eXU-3" target="CSlSsVyFQcHGm--J2eXU-23">
          <mxGeometry width="50" height="50" relative="1" as="geometry">
            <mxPoint x="494.01" y="125" as="sourcePoint" />
            <mxPoint x="544.01" y="75" as="targetPoint" />
          </mxGeometry>
        </mxCell>
        <mxCell id="CSlSsVyFQcHGm--J2eXU-25" value="" style="endArrow=classic;html=1;rounded=0;exitX=1;exitY=0.5;exitDx=0;exitDy=0;entryX=0;entryY=0.5;entryDx=0;entryDy=0;" edge="1" parent="1" source="CSlSsVyFQcHGm--J2eXU-23" target="CSlSsVyFQcHGm--J2eXU-2">
          <mxGeometry width="50" height="50" relative="1" as="geometry">
            <mxPoint x="580.01" y="120" as="sourcePoint" />
            <mxPoint x="630.01" y="70" as="targetPoint" />
          </mxGeometry>
        </mxCell>
        <mxCell id="CSlSsVyFQcHGm--J2eXU-26" value="1:N" style="text;html=1;align=center;verticalAlign=middle;whiteSpace=wrap;rounded=0;" vertex="1" parent="1">
          <mxGeometry x="520.01" y="70" width="60" height="30" as="geometry" />
        </mxCell>
        <mxCell id="CSlSsVyFQcHGm--J2eXU-28" value="id_plato FK" style="ellipse;whiteSpace=wrap;html=1;" vertex="1" parent="1">
          <mxGeometry x="570" y="265" width="70" height="40" as="geometry" />
        </mxCell>
        <mxCell id="CSlSsVyFQcHGm--J2eXU-29" value="id_pedido FK" style="ellipse;whiteSpace=wrap;html=1;" vertex="1" parent="1">
          <mxGeometry x="570" y="330" width="70" height="40" as="geometry" />
        </mxCell>
        <mxCell id="CSlSsVyFQcHGm--J2eXU-30" value="cantidad" style="ellipse;whiteSpace=wrap;html=1;" vertex="1" parent="1">
          <mxGeometry x="490" y="330" width="70" height="40" as="geometry" />
        </mxCell>
        <mxCell id="CSlSsVyFQcHGm--J2eXU-31" value="Incluye" style="rhombus;whiteSpace=wrap;html=1;" vertex="1" parent="1">
          <mxGeometry x="408.13" y="200" width="63.75" height="60" as="geometry" />
        </mxCell>
        <mxCell id="CSlSsVyFQcHGm--J2eXU-32" value="" style="endArrow=classic;html=1;rounded=0;exitX=0.5;exitY=1;exitDx=0;exitDy=0;" edge="1" parent="1" source="CSlSsVyFQcHGm--J2eXU-3" target="CSlSsVyFQcHGm--J2eXU-31">
          <mxGeometry width="50" height="50" relative="1" as="geometry">
            <mxPoint x="475.01" y="260" as="sourcePoint" />
            <mxPoint x="440.0150000000001" y="200" as="targetPoint" />
          </mxGeometry>
        </mxCell>
        <mxCell id="CSlSsVyFQcHGm--J2eXU-33" value="" style="endArrow=classic;html=1;rounded=0;exitX=1;exitY=1;exitDx=0;exitDy=0;entryX=0.013;entryY=0.14;entryDx=0;entryDy=0;entryPerimeter=0;" edge="1" parent="1" source="CSlSsVyFQcHGm--J2eXU-31" target="CSlSsVyFQcHGm--J2eXU-5">
          <mxGeometry width="50" height="50" relative="1" as="geometry">
            <mxPoint x="480" y="250" as="sourcePoint" />
            <mxPoint x="530" y="200" as="targetPoint" />
          </mxGeometry>
        </mxCell>
        <mxCell id="CSlSsVyFQcHGm--J2eXU-34" value="" style="endArrow=classic;html=1;rounded=0;exitX=0;exitY=1;exitDx=0;exitDy=0;" edge="1" parent="1" source="CSlSsVyFQcHGm--J2eXU-31" target="CSlSsVyFQcHGm--J2eXU-4">
          <mxGeometry width="50" height="50" relative="1" as="geometry">
            <mxPoint x="415" y="360" as="sourcePoint" />
            <mxPoint x="424" y="300" as="targetPoint" />
          </mxGeometry>
        </mxCell>
        <mxCell id="CSlSsVyFQcHGm--J2eXU-35" value="N:M" style="text;html=1;align=center;verticalAlign=middle;whiteSpace=wrap;rounded=0;" vertex="1" parent="1">
          <mxGeometry x="414" y="260" width="60" height="30" as="geometry" />
        </mxCell>
        <mxCell id="CSlSsVyFQcHGm--J2eXU-36" value="CLIENTE" style="shape=table;startSize=30;container=1;collapsible=1;childLayout=tableLayout;fixedRows=1;rowLines=0;fontStyle=1;align=center;resizeLast=1;html=1;" vertex="1" parent="1">
          <mxGeometry x="45.009999999999984" y="640" width="180" height="120" as="geometry" />
        </mxCell>
        <mxCell id="CSlSsVyFQcHGm--J2eXU-37" value="" style="shape=tableRow;horizontal=0;startSize=0;swimlaneHead=0;swimlaneBody=0;fillColor=none;collapsible=0;dropTarget=0;points=[[0,0.5],[1,0.5]];portConstraint=eastwest;top=0;left=0;right=0;bottom=1;" vertex="1" parent="CSlSsVyFQcHGm--J2eXU-36">
          <mxGeometry y="30" width="180" height="30" as="geometry" />
        </mxCell>
        <mxCell id="CSlSsVyFQcHGm--J2eXU-38" value="PK" style="shape=partialRectangle;connectable=0;fillColor=none;top=0;left=0;bottom=0;right=0;fontStyle=1;overflow=hidden;whiteSpace=wrap;html=1;" vertex="1" parent="CSlSsVyFQcHGm--J2eXU-37">
          <mxGeometry width="30" height="30" as="geometry">
            <mxRectangle width="30" height="30" as="alternateBounds" />
          </mxGeometry>
        </mxCell>
        <mxCell id="CSlSsVyFQcHGm--J2eXU-39" value="id_cliente" style="shape=partialRectangle;connectable=0;fillColor=none;top=0;left=0;bottom=0;right=0;align=left;spacingLeft=6;fontStyle=5;overflow=hidden;whiteSpace=wrap;html=1;" vertex="1" parent="CSlSsVyFQcHGm--J2eXU-37">
          <mxGeometry x="30" width="150" height="30" as="geometry">
            <mxRectangle width="150" height="30" as="alternateBounds" />
          </mxGeometry>
        </mxCell>
        <mxCell id="CSlSsVyFQcHGm--J2eXU-40" value="" style="shape=tableRow;horizontal=0;startSize=0;swimlaneHead=0;swimlaneBody=0;fillColor=none;collapsible=0;dropTarget=0;points=[[0,0.5],[1,0.5]];portConstraint=eastwest;top=0;left=0;right=0;bottom=0;" vertex="1" parent="CSlSsVyFQcHGm--J2eXU-36">
          <mxGeometry y="60" width="180" height="30" as="geometry" />
        </mxCell>
        <mxCell id="CSlSsVyFQcHGm--J2eXU-41" value="" style="shape=partialRectangle;connectable=0;fillColor=none;top=0;left=0;bottom=0;right=0;editable=1;overflow=hidden;whiteSpace=wrap;html=1;" vertex="1" parent="CSlSsVyFQcHGm--J2eXU-40">
          <mxGeometry width="30" height="30" as="geometry">
            <mxRectangle width="30" height="30" as="alternateBounds" />
          </mxGeometry>
        </mxCell>
        <mxCell id="CSlSsVyFQcHGm--J2eXU-42" value="nombre" style="shape=partialRectangle;connectable=0;fillColor=none;top=0;left=0;bottom=0;right=0;align=left;spacingLeft=6;overflow=hidden;whiteSpace=wrap;html=1;" vertex="1" parent="CSlSsVyFQcHGm--J2eXU-40">
          <mxGeometry x="30" width="150" height="30" as="geometry">
            <mxRectangle width="150" height="30" as="alternateBounds" />
          </mxGeometry>
        </mxCell>
        <mxCell id="CSlSsVyFQcHGm--J2eXU-43" value="" style="shape=tableRow;horizontal=0;startSize=0;swimlaneHead=0;swimlaneBody=0;fillColor=none;collapsible=0;dropTarget=0;points=[[0,0.5],[1,0.5]];portConstraint=eastwest;top=0;left=0;right=0;bottom=0;" vertex="1" parent="CSlSsVyFQcHGm--J2eXU-36">
          <mxGeometry y="90" width="180" height="30" as="geometry" />
        </mxCell>
        <mxCell id="CSlSsVyFQcHGm--J2eXU-44" value="" style="shape=partialRectangle;connectable=0;fillColor=none;top=0;left=0;bottom=0;right=0;editable=1;overflow=hidden;whiteSpace=wrap;html=1;" vertex="1" parent="CSlSsVyFQcHGm--J2eXU-43">
          <mxGeometry width="30" height="30" as="geometry">
            <mxRectangle width="30" height="30" as="alternateBounds" />
          </mxGeometry>
        </mxCell>
        <mxCell id="CSlSsVyFQcHGm--J2eXU-45" value="telefono" style="shape=partialRectangle;connectable=0;fillColor=none;top=0;left=0;bottom=0;right=0;align=left;spacingLeft=6;overflow=hidden;whiteSpace=wrap;html=1;" vertex="1" parent="CSlSsVyFQcHGm--J2eXU-43">
          <mxGeometry x="30" width="150" height="30" as="geometry">
            <mxRectangle width="150" height="30" as="alternateBounds" />
          </mxGeometry>
        </mxCell>
        <mxCell id="CSlSsVyFQcHGm--J2eXU-49" value="PEDIDO" style="shape=table;startSize=30;container=1;collapsible=1;childLayout=tableLayout;fixedRows=1;rowLines=0;fontStyle=1;align=center;resizeLast=1;html=1;whiteSpace=wrap;" vertex="1" parent="1">
          <mxGeometry x="302.51" y="540" width="180" height="150" as="geometry" />
        </mxCell>
        <mxCell id="CSlSsVyFQcHGm--J2eXU-62" value="" style="shape=tableRow;horizontal=0;startSize=0;swimlaneHead=0;swimlaneBody=0;fillColor=none;collapsible=0;dropTarget=0;points=[[0,0.5],[1,0.5]];portConstraint=eastwest;top=0;left=0;right=0;bottom=1;html=1;" vertex="1" parent="CSlSsVyFQcHGm--J2eXU-49">
          <mxGeometry y="30" width="180" height="30" as="geometry" />
        </mxCell>
        <mxCell id="CSlSsVyFQcHGm--J2eXU-63" value="PK" style="shape=partialRectangle;connectable=0;fillColor=none;top=0;left=0;bottom=0;right=0;fontStyle=1;overflow=hidden;html=1;whiteSpace=wrap;" vertex="1" parent="CSlSsVyFQcHGm--J2eXU-62">
          <mxGeometry width="60" height="30" as="geometry">
            <mxRectangle width="60" height="30" as="alternateBounds" />
          </mxGeometry>
        </mxCell>
        <mxCell id="CSlSsVyFQcHGm--J2eXU-64" value="id_pedido" style="shape=partialRectangle;connectable=0;fillColor=none;top=0;left=0;bottom=0;right=0;align=left;spacingLeft=6;fontStyle=5;overflow=hidden;html=1;whiteSpace=wrap;" vertex="1" parent="CSlSsVyFQcHGm--J2eXU-62">
          <mxGeometry x="60" width="120" height="30" as="geometry">
            <mxRectangle width="120" height="30" as="alternateBounds" />
          </mxGeometry>
        </mxCell>
        <mxCell id="CSlSsVyFQcHGm--J2eXU-50" value="" style="shape=tableRow;horizontal=0;startSize=0;swimlaneHead=0;swimlaneBody=0;fillColor=none;collapsible=0;dropTarget=0;points=[[0,0.5],[1,0.5]];portConstraint=eastwest;top=0;left=0;right=0;bottom=0;html=1;" vertex="1" parent="CSlSsVyFQcHGm--J2eXU-49">
          <mxGeometry y="60" width="180" height="30" as="geometry" />
        </mxCell>
        <mxCell id="CSlSsVyFQcHGm--J2eXU-51" value="FK" style="shape=partialRectangle;connectable=0;fillColor=none;top=0;left=0;bottom=0;right=0;fontStyle=1;overflow=hidden;html=1;whiteSpace=wrap;" vertex="1" parent="CSlSsVyFQcHGm--J2eXU-50">
          <mxGeometry width="60" height="30" as="geometry">
            <mxRectangle width="60" height="30" as="alternateBounds" />
          </mxGeometry>
        </mxCell>
        <mxCell id="CSlSsVyFQcHGm--J2eXU-52" value="id_mesa" style="shape=partialRectangle;connectable=0;fillColor=none;top=0;left=0;bottom=0;right=0;align=left;spacingLeft=6;fontStyle=5;overflow=hidden;html=1;whiteSpace=wrap;" vertex="1" parent="CSlSsVyFQcHGm--J2eXU-50">
          <mxGeometry x="60" width="120" height="30" as="geometry">
            <mxRectangle width="120" height="30" as="alternateBounds" />
          </mxGeometry>
        </mxCell>
        <mxCell id="CSlSsVyFQcHGm--J2eXU-53" value="" style="shape=tableRow;horizontal=0;startSize=0;swimlaneHead=0;swimlaneBody=0;fillColor=none;collapsible=0;dropTarget=0;points=[[0,0.5],[1,0.5]];portConstraint=eastwest;top=0;left=0;right=0;bottom=1;html=1;" vertex="1" parent="CSlSsVyFQcHGm--J2eXU-49">
          <mxGeometry y="90" width="180" height="30" as="geometry" />
        </mxCell>
        <mxCell id="CSlSsVyFQcHGm--J2eXU-54" value="FK" style="shape=partialRectangle;connectable=0;fillColor=none;top=0;left=0;bottom=0;right=0;fontStyle=1;overflow=hidden;html=1;whiteSpace=wrap;" vertex="1" parent="CSlSsVyFQcHGm--J2eXU-53">
          <mxGeometry width="60" height="30" as="geometry">
            <mxRectangle width="60" height="30" as="alternateBounds" />
          </mxGeometry>
        </mxCell>
        <mxCell id="CSlSsVyFQcHGm--J2eXU-55" value="id_cliente" style="shape=partialRectangle;connectable=0;fillColor=none;top=0;left=0;bottom=0;right=0;align=left;spacingLeft=6;fontStyle=5;overflow=hidden;html=1;whiteSpace=wrap;" vertex="1" parent="CSlSsVyFQcHGm--J2eXU-53">
          <mxGeometry x="60" width="120" height="30" as="geometry">
            <mxRectangle width="120" height="30" as="alternateBounds" />
          </mxGeometry>
        </mxCell>
        <mxCell id="CSlSsVyFQcHGm--J2eXU-56" value="" style="shape=tableRow;horizontal=0;startSize=0;swimlaneHead=0;swimlaneBody=0;fillColor=none;collapsible=0;dropTarget=0;points=[[0,0.5],[1,0.5]];portConstraint=eastwest;top=0;left=0;right=0;bottom=0;html=1;" vertex="1" parent="CSlSsVyFQcHGm--J2eXU-49">
          <mxGeometry y="120" width="180" height="30" as="geometry" />
        </mxCell>
        <mxCell id="CSlSsVyFQcHGm--J2eXU-57" value="" style="shape=partialRectangle;connectable=0;fillColor=none;top=0;left=0;bottom=0;right=0;editable=1;overflow=hidden;html=1;whiteSpace=wrap;" vertex="1" parent="CSlSsVyFQcHGm--J2eXU-56">
          <mxGeometry width="60" height="30" as="geometry">
            <mxRectangle width="60" height="30" as="alternateBounds" />
          </mxGeometry>
        </mxCell>
        <mxCell id="CSlSsVyFQcHGm--J2eXU-58" value="fecha" style="shape=partialRectangle;connectable=0;fillColor=none;top=0;left=0;bottom=0;right=0;align=left;spacingLeft=6;overflow=hidden;html=1;whiteSpace=wrap;" vertex="1" parent="CSlSsVyFQcHGm--J2eXU-56">
          <mxGeometry x="60" width="120" height="30" as="geometry">
            <mxRectangle width="120" height="30" as="alternateBounds" />
          </mxGeometry>
        </mxCell>
        <mxCell id="CSlSsVyFQcHGm--J2eXU-65" value="MESA" style="shape=table;startSize=30;container=1;collapsible=1;childLayout=tableLayout;fixedRows=1;rowLines=0;fontStyle=1;align=center;resizeLast=1;html=1;" vertex="1" parent="1">
          <mxGeometry x="45.00999999999999" y="450" width="180" height="120" as="geometry" />
        </mxCell>
        <mxCell id="CSlSsVyFQcHGm--J2eXU-66" value="" style="shape=tableRow;horizontal=0;startSize=0;swimlaneHead=0;swimlaneBody=0;fillColor=none;collapsible=0;dropTarget=0;points=[[0,0.5],[1,0.5]];portConstraint=eastwest;top=0;left=0;right=0;bottom=1;" vertex="1" parent="CSlSsVyFQcHGm--J2eXU-65">
          <mxGeometry y="30" width="180" height="30" as="geometry" />
        </mxCell>
        <mxCell id="CSlSsVyFQcHGm--J2eXU-67" value="PK" style="shape=partialRectangle;connectable=0;fillColor=none;top=0;left=0;bottom=0;right=0;fontStyle=1;overflow=hidden;whiteSpace=wrap;html=1;" vertex="1" parent="CSlSsVyFQcHGm--J2eXU-66">
          <mxGeometry width="30" height="30" as="geometry">
            <mxRectangle width="30" height="30" as="alternateBounds" />
          </mxGeometry>
        </mxCell>
        <mxCell id="CSlSsVyFQcHGm--J2eXU-68" value="id_mesa" style="shape=partialRectangle;connectable=0;fillColor=none;top=0;left=0;bottom=0;right=0;align=left;spacingLeft=6;fontStyle=5;overflow=hidden;whiteSpace=wrap;html=1;" vertex="1" parent="CSlSsVyFQcHGm--J2eXU-66">
          <mxGeometry x="30" width="150" height="30" as="geometry">
            <mxRectangle width="150" height="30" as="alternateBounds" />
          </mxGeometry>
        </mxCell>
        <mxCell id="CSlSsVyFQcHGm--J2eXU-69" value="" style="shape=tableRow;horizontal=0;startSize=0;swimlaneHead=0;swimlaneBody=0;fillColor=none;collapsible=0;dropTarget=0;points=[[0,0.5],[1,0.5]];portConstraint=eastwest;top=0;left=0;right=0;bottom=0;" vertex="1" parent="CSlSsVyFQcHGm--J2eXU-65">
          <mxGeometry y="60" width="180" height="30" as="geometry" />
        </mxCell>
        <mxCell id="CSlSsVyFQcHGm--J2eXU-70" value="" style="shape=partialRectangle;connectable=0;fillColor=none;top=0;left=0;bottom=0;right=0;editable=1;overflow=hidden;whiteSpace=wrap;html=1;" vertex="1" parent="CSlSsVyFQcHGm--J2eXU-69">
          <mxGeometry width="30" height="30" as="geometry">
            <mxRectangle width="30" height="30" as="alternateBounds" />
          </mxGeometry>
        </mxCell>
        <mxCell id="CSlSsVyFQcHGm--J2eXU-71" value="capacidad" style="shape=partialRectangle;connectable=0;fillColor=none;top=0;left=0;bottom=0;right=0;align=left;spacingLeft=6;overflow=hidden;whiteSpace=wrap;html=1;" vertex="1" parent="CSlSsVyFQcHGm--J2eXU-69">
          <mxGeometry x="30" width="150" height="30" as="geometry">
            <mxRectangle width="150" height="30" as="alternateBounds" />
          </mxGeometry>
        </mxCell>
        <mxCell id="CSlSsVyFQcHGm--J2eXU-72" value="" style="shape=tableRow;horizontal=0;startSize=0;swimlaneHead=0;swimlaneBody=0;fillColor=none;collapsible=0;dropTarget=0;points=[[0,0.5],[1,0.5]];portConstraint=eastwest;top=0;left=0;right=0;bottom=0;" vertex="1" parent="CSlSsVyFQcHGm--J2eXU-65">
          <mxGeometry y="90" width="180" height="30" as="geometry" />
        </mxCell>
        <mxCell id="CSlSsVyFQcHGm--J2eXU-73" value="" style="shape=partialRectangle;connectable=0;fillColor=none;top=0;left=0;bottom=0;right=0;editable=1;overflow=hidden;whiteSpace=wrap;html=1;" vertex="1" parent="CSlSsVyFQcHGm--J2eXU-72">
          <mxGeometry width="30" height="30" as="geometry">
            <mxRectangle width="30" height="30" as="alternateBounds" />
          </mxGeometry>
        </mxCell>
        <mxCell id="CSlSsVyFQcHGm--J2eXU-74" value="numero" style="shape=partialRectangle;connectable=0;fillColor=none;top=0;left=0;bottom=0;right=0;align=left;spacingLeft=6;overflow=hidden;whiteSpace=wrap;html=1;" vertex="1" parent="CSlSsVyFQcHGm--J2eXU-72">
          <mxGeometry x="30" width="150" height="30" as="geometry">
            <mxRectangle width="150" height="30" as="alternateBounds" />
          </mxGeometry>
        </mxCell>
        <mxCell id="CSlSsVyFQcHGm--J2eXU-78" value="PLATO" style="shape=table;startSize=30;container=1;collapsible=1;childLayout=tableLayout;fixedRows=1;rowLines=0;fontStyle=1;align=center;resizeLast=1;html=1;" vertex="1" parent="1">
          <mxGeometry x="555.01" y="450" width="180" height="150" as="geometry" />
        </mxCell>
        <mxCell id="CSlSsVyFQcHGm--J2eXU-105" value="" style="shape=tableRow;horizontal=0;startSize=0;swimlaneHead=0;swimlaneBody=0;fillColor=none;collapsible=0;dropTarget=0;points=[[0,0.5],[1,0.5]];portConstraint=eastwest;top=0;left=0;right=0;bottom=1;" vertex="1" parent="CSlSsVyFQcHGm--J2eXU-78">
          <mxGeometry y="30" width="180" height="30" as="geometry" />
        </mxCell>
        <mxCell id="CSlSsVyFQcHGm--J2eXU-106" value="PK" style="shape=partialRectangle;connectable=0;fillColor=none;top=0;left=0;bottom=0;right=0;fontStyle=1;overflow=hidden;whiteSpace=wrap;html=1;" vertex="1" parent="CSlSsVyFQcHGm--J2eXU-105">
          <mxGeometry width="30" height="30" as="geometry">
            <mxRectangle width="30" height="30" as="alternateBounds" />
          </mxGeometry>
        </mxCell>
        <mxCell id="CSlSsVyFQcHGm--J2eXU-107" value="id_plato" style="shape=partialRectangle;connectable=0;fillColor=none;top=0;left=0;bottom=0;right=0;align=left;spacingLeft=6;fontStyle=5;overflow=hidden;whiteSpace=wrap;html=1;" vertex="1" parent="CSlSsVyFQcHGm--J2eXU-105">
          <mxGeometry x="30" width="150" height="30" as="geometry">
            <mxRectangle width="150" height="30" as="alternateBounds" />
          </mxGeometry>
        </mxCell>
        <mxCell id="CSlSsVyFQcHGm--J2eXU-79" value="" style="shape=tableRow;horizontal=0;startSize=0;swimlaneHead=0;swimlaneBody=0;fillColor=none;collapsible=0;dropTarget=0;points=[[0,0.5],[1,0.5]];portConstraint=eastwest;top=0;left=0;right=0;bottom=1;" vertex="1" parent="CSlSsVyFQcHGm--J2eXU-78">
          <mxGeometry y="60" width="180" height="30" as="geometry" />
        </mxCell>
        <mxCell id="CSlSsVyFQcHGm--J2eXU-80" value="FK" style="shape=partialRectangle;connectable=0;fillColor=none;top=0;left=0;bottom=0;right=0;fontStyle=1;overflow=hidden;whiteSpace=wrap;html=1;" vertex="1" parent="CSlSsVyFQcHGm--J2eXU-79">
          <mxGeometry width="30" height="30" as="geometry">
            <mxRectangle width="30" height="30" as="alternateBounds" />
          </mxGeometry>
        </mxCell>
        <mxCell id="CSlSsVyFQcHGm--J2eXU-81" value="id_pedido" style="shape=partialRectangle;connectable=0;fillColor=none;top=0;left=0;bottom=0;right=0;align=left;spacingLeft=6;fontStyle=5;overflow=hidden;whiteSpace=wrap;html=1;" vertex="1" parent="CSlSsVyFQcHGm--J2eXU-79">
          <mxGeometry x="30" width="150" height="30" as="geometry">
            <mxRectangle width="150" height="30" as="alternateBounds" />
          </mxGeometry>
        </mxCell>
        <mxCell id="CSlSsVyFQcHGm--J2eXU-82" value="" style="shape=tableRow;horizontal=0;startSize=0;swimlaneHead=0;swimlaneBody=0;fillColor=none;collapsible=0;dropTarget=0;points=[[0,0.5],[1,0.5]];portConstraint=eastwest;top=0;left=0;right=0;bottom=0;" vertex="1" parent="CSlSsVyFQcHGm--J2eXU-78">
          <mxGeometry y="90" width="180" height="30" as="geometry" />
        </mxCell>
        <mxCell id="CSlSsVyFQcHGm--J2eXU-83" value="" style="shape=partialRectangle;connectable=0;fillColor=none;top=0;left=0;bottom=0;right=0;editable=1;overflow=hidden;whiteSpace=wrap;html=1;" vertex="1" parent="CSlSsVyFQcHGm--J2eXU-82">
          <mxGeometry width="30" height="30" as="geometry">
            <mxRectangle width="30" height="30" as="alternateBounds" />
          </mxGeometry>
        </mxCell>
        <mxCell id="CSlSsVyFQcHGm--J2eXU-84" value="precio" style="shape=partialRectangle;connectable=0;fillColor=none;top=0;left=0;bottom=0;right=0;align=left;spacingLeft=6;overflow=hidden;whiteSpace=wrap;html=1;" vertex="1" parent="CSlSsVyFQcHGm--J2eXU-82">
          <mxGeometry x="30" width="150" height="30" as="geometry">
            <mxRectangle width="150" height="30" as="alternateBounds" />
          </mxGeometry>
        </mxCell>
        <mxCell id="CSlSsVyFQcHGm--J2eXU-85" value="" style="shape=tableRow;horizontal=0;startSize=0;swimlaneHead=0;swimlaneBody=0;fillColor=none;collapsible=0;dropTarget=0;points=[[0,0.5],[1,0.5]];portConstraint=eastwest;top=0;left=0;right=0;bottom=0;" vertex="1" parent="CSlSsVyFQcHGm--J2eXU-78">
          <mxGeometry y="120" width="180" height="30" as="geometry" />
        </mxCell>
        <mxCell id="CSlSsVyFQcHGm--J2eXU-86" value="" style="shape=partialRectangle;connectable=0;fillColor=none;top=0;left=0;bottom=0;right=0;editable=1;overflow=hidden;whiteSpace=wrap;html=1;" vertex="1" parent="CSlSsVyFQcHGm--J2eXU-85">
          <mxGeometry width="30" height="30" as="geometry">
            <mxRectangle width="30" height="30" as="alternateBounds" />
          </mxGeometry>
        </mxCell>
        <mxCell id="CSlSsVyFQcHGm--J2eXU-87" value="nombre" style="shape=partialRectangle;connectable=0;fillColor=none;top=0;left=0;bottom=0;right=0;align=left;spacingLeft=6;overflow=hidden;whiteSpace=wrap;html=1;" vertex="1" parent="CSlSsVyFQcHGm--J2eXU-85">
          <mxGeometry x="30" width="150" height="30" as="geometry">
            <mxRectangle width="150" height="30" as="alternateBounds" />
          </mxGeometry>
        </mxCell>
        <mxCell id="CSlSsVyFQcHGm--J2eXU-91" value="DETALLES PEDIDO" style="shape=table;startSize=30;container=1;collapsible=1;childLayout=tableLayout;fixedRows=1;rowLines=0;fontStyle=1;align=center;resizeLast=1;html=1;whiteSpace=wrap;" vertex="1" parent="1">
          <mxGeometry x="555.01" y="640" width="180" height="90" as="geometry" />
        </mxCell>
        <mxCell id="CSlSsVyFQcHGm--J2eXU-92" value="" style="shape=tableRow;horizontal=0;startSize=0;swimlaneHead=0;swimlaneBody=0;fillColor=none;collapsible=0;dropTarget=0;points=[[0,0.5],[1,0.5]];portConstraint=eastwest;top=0;left=0;right=0;bottom=0;html=1;" vertex="1" parent="CSlSsVyFQcHGm--J2eXU-91">
          <mxGeometry y="30" width="180" height="30" as="geometry" />
        </mxCell>
        <mxCell id="CSlSsVyFQcHGm--J2eXU-93" value="PK,FK1" style="shape=partialRectangle;connectable=0;fillColor=none;top=0;left=0;bottom=0;right=0;fontStyle=1;overflow=hidden;html=1;whiteSpace=wrap;" vertex="1" parent="CSlSsVyFQcHGm--J2eXU-92">
          <mxGeometry width="60" height="30" as="geometry">
            <mxRectangle width="60" height="30" as="alternateBounds" />
          </mxGeometry>
        </mxCell>
        <mxCell id="CSlSsVyFQcHGm--J2eXU-94" value="id_plato" style="shape=partialRectangle;connectable=0;fillColor=none;top=0;left=0;bottom=0;right=0;align=left;spacingLeft=6;fontStyle=5;overflow=hidden;html=1;whiteSpace=wrap;" vertex="1" parent="CSlSsVyFQcHGm--J2eXU-92">
          <mxGeometry x="60" width="120" height="30" as="geometry">
            <mxRectangle width="120" height="30" as="alternateBounds" />
          </mxGeometry>
        </mxCell>
        <mxCell id="CSlSsVyFQcHGm--J2eXU-98" value="" style="shape=tableRow;horizontal=0;startSize=0;swimlaneHead=0;swimlaneBody=0;fillColor=none;collapsible=0;dropTarget=0;points=[[0,0.5],[1,0.5]];portConstraint=eastwest;top=0;left=0;right=0;bottom=0;html=1;" vertex="1" parent="CSlSsVyFQcHGm--J2eXU-91">
          <mxGeometry y="60" width="180" height="30" as="geometry" />
        </mxCell>
        <mxCell id="CSlSsVyFQcHGm--J2eXU-99" value="" style="shape=partialRectangle;connectable=0;fillColor=none;top=0;left=0;bottom=0;right=0;editable=1;overflow=hidden;html=1;whiteSpace=wrap;" vertex="1" parent="CSlSsVyFQcHGm--J2eXU-98">
          <mxGeometry width="60" height="30" as="geometry">
            <mxRectangle width="60" height="30" as="alternateBounds" />
          </mxGeometry>
        </mxCell>
        <mxCell id="CSlSsVyFQcHGm--J2eXU-100" value="cantidad" style="shape=partialRectangle;connectable=0;fillColor=none;top=0;left=0;bottom=0;right=0;align=left;spacingLeft=6;overflow=hidden;html=1;whiteSpace=wrap;" vertex="1" parent="CSlSsVyFQcHGm--J2eXU-98">
          <mxGeometry x="60" width="120" height="30" as="geometry">
            <mxRectangle width="120" height="30" as="alternateBounds" />
          </mxGeometry>
        </mxCell>
        <mxCell id="CSlSsVyFQcHGm--J2eXU-104" value="id_pedido FK" style="ellipse;whiteSpace=wrap;html=1;" vertex="1" parent="1">
          <mxGeometry x="235.01" y="220" width="70" height="40" as="geometry" />
        </mxCell>
        <mxCell id="CSlSsVyFQcHGm--J2eXU-108" value="" style="edgeStyle=entityRelationEdgeStyle;fontSize=12;html=1;endArrow=ERoneToMany;rounded=0;" edge="1" parent="1" source="CSlSsVyFQcHGm--J2eXU-37" target="CSlSsVyFQcHGm--J2eXU-53">
          <mxGeometry width="100" height="100" relative="1" as="geometry">
            <mxPoint x="230" y="620" as="sourcePoint" />
            <mxPoint x="330" y="520" as="targetPoint" />
          </mxGeometry>
        </mxCell>
        <mxCell id="CSlSsVyFQcHGm--J2eXU-109" value="" style="edgeStyle=entityRelationEdgeStyle;fontSize=12;html=1;endArrow=ERoneToMany;rounded=0;" edge="1" parent="1" source="CSlSsVyFQcHGm--J2eXU-50" target="CSlSsVyFQcHGm--J2eXU-66">
          <mxGeometry width="100" height="100" relative="1" as="geometry">
            <mxPoint x="474" y="540" as="sourcePoint" />
            <mxPoint x="574" y="440" as="targetPoint" />
          </mxGeometry>
        </mxCell>
        <mxCell id="CSlSsVyFQcHGm--J2eXU-110" value="" style="edgeStyle=entityRelationEdgeStyle;fontSize=12;html=1;endArrow=ERoneToMany;rounded=0;" edge="1" parent="1" source="CSlSsVyFQcHGm--J2eXU-62" target="CSlSsVyFQcHGm--J2eXU-79">
          <mxGeometry width="100" height="100" relative="1" as="geometry">
            <mxPoint x="360" y="730" as="sourcePoint" />
            <mxPoint x="460" y="630" as="targetPoint" />
          </mxGeometry>
        </mxCell>
        <mxCell id="CSlSsVyFQcHGm--J2eXU-112" value="" style="edgeStyle=entityRelationEdgeStyle;fontSize=12;html=1;endArrow=ERoneToMany;startArrow=ERoneToMany;rounded=0;" edge="1" parent="1" source="CSlSsVyFQcHGm--J2eXU-92" target="CSlSsVyFQcHGm--J2eXU-105">
          <mxGeometry width="100" height="100" relative="1" as="geometry">
            <mxPoint x="727" y="634.5" as="sourcePoint" />
            <mxPoint x="827" y="534.5" as="targetPoint" />
          </mxGeometry>
        </mxCell>
        <mxCell id="CSlSsVyFQcHGm--J2eXU-113" value="" style="endArrow=none;html=1;rounded=0;entryX=0.5;entryY=1;entryDx=0;entryDy=0;" edge="1" parent="1" source="CSlSsVyFQcHGm--J2eXU-1" target="CSlSsVyFQcHGm--J2eXU-6">
          <mxGeometry relative="1" as="geometry">
            <mxPoint x="25.00999999999999" y="94" as="sourcePoint" />
            <mxPoint x="185.01" y="94" as="targetPoint" />
          </mxGeometry>
        </mxCell>
        <mxCell id="CSlSsVyFQcHGm--J2eXU-114" value="" style="endArrow=none;html=1;rounded=0;" edge="1" parent="1" source="CSlSsVyFQcHGm--J2eXU-8" target="CSlSsVyFQcHGm--J2eXU-1">
          <mxGeometry relative="1" as="geometry">
            <mxPoint x="330" y="180" as="sourcePoint" />
            <mxPoint x="490" y="180" as="targetPoint" />
          </mxGeometry>
        </mxCell>
        <mxCell id="CSlSsVyFQcHGm--J2eXU-115" value="" style="endArrow=none;html=1;rounded=0;" edge="1" parent="1" source="CSlSsVyFQcHGm--J2eXU-7" target="CSlSsVyFQcHGm--J2eXU-1">
          <mxGeometry relative="1" as="geometry">
            <mxPoint x="302.51" y="170" as="sourcePoint" />
            <mxPoint x="462.51" y="170" as="targetPoint" />
          </mxGeometry>
        </mxCell>
        <mxCell id="CSlSsVyFQcHGm--J2eXU-120" value="" style="endArrow=none;html=1;rounded=0;" edge="1" parent="1" source="CSlSsVyFQcHGm--J2eXU-12" target="CSlSsVyFQcHGm--J2eXU-3">
          <mxGeometry relative="1" as="geometry">
            <mxPoint x="330" y="180" as="sourcePoint" />
            <mxPoint x="490" y="180" as="targetPoint" />
          </mxGeometry>
        </mxCell>
        <mxCell id="CSlSsVyFQcHGm--J2eXU-121" value="" style="endArrow=none;html=1;rounded=0;" edge="1" parent="1" source="CSlSsVyFQcHGm--J2eXU-13" target="CSlSsVyFQcHGm--J2eXU-3">
          <mxGeometry relative="1" as="geometry">
            <mxPoint x="330" y="180" as="sourcePoint" />
            <mxPoint x="490" y="180" as="targetPoint" />
          </mxGeometry>
        </mxCell>
        <mxCell id="CSlSsVyFQcHGm--J2eXU-122" value="" style="endArrow=none;html=1;rounded=0;" edge="1" parent="1" source="CSlSsVyFQcHGm--J2eXU-3" target="CSlSsVyFQcHGm--J2eXU-14">
          <mxGeometry relative="1" as="geometry">
            <mxPoint x="330" y="180" as="sourcePoint" />
            <mxPoint x="490" y="180" as="targetPoint" />
          </mxGeometry>
        </mxCell>
        <mxCell id="CSlSsVyFQcHGm--J2eXU-123" value="" style="endArrow=none;html=1;rounded=0;" edge="1" parent="1" source="CSlSsVyFQcHGm--J2eXU-3" target="CSlSsVyFQcHGm--J2eXU-15">
          <mxGeometry relative="1" as="geometry">
            <mxPoint x="330" y="180" as="sourcePoint" />
            <mxPoint x="490" y="180" as="targetPoint" />
          </mxGeometry>
        </mxCell>
        <mxCell id="CSlSsVyFQcHGm--J2eXU-124" value="" style="endArrow=none;html=1;rounded=0;" edge="1" parent="1" source="CSlSsVyFQcHGm--J2eXU-9" target="CSlSsVyFQcHGm--J2eXU-2">
          <mxGeometry relative="1" as="geometry">
            <mxPoint x="330" y="180" as="sourcePoint" />
            <mxPoint x="490" y="180" as="targetPoint" />
          </mxGeometry>
        </mxCell>
        <mxCell id="CSlSsVyFQcHGm--J2eXU-125" value="" style="endArrow=none;html=1;rounded=0;" edge="1" parent="1" source="CSlSsVyFQcHGm--J2eXU-11" target="CSlSsVyFQcHGm--J2eXU-2">
          <mxGeometry relative="1" as="geometry">
            <mxPoint x="330" y="180" as="sourcePoint" />
            <mxPoint x="490" y="180" as="targetPoint" />
          </mxGeometry>
        </mxCell>
        <mxCell id="CSlSsVyFQcHGm--J2eXU-126" value="" style="endArrow=none;html=1;rounded=0;" edge="1" parent="1" source="CSlSsVyFQcHGm--J2eXU-2" target="CSlSsVyFQcHGm--J2eXU-10">
          <mxGeometry relative="1" as="geometry">
            <mxPoint x="330" y="180" as="sourcePoint" />
            <mxPoint x="490" y="180" as="targetPoint" />
          </mxGeometry>
        </mxCell>
        <mxCell id="CSlSsVyFQcHGm--J2eXU-127" value="" style="endArrow=none;html=1;rounded=0;" edge="1" parent="1" source="CSlSsVyFQcHGm--J2eXU-4" target="CSlSsVyFQcHGm--J2eXU-104">
          <mxGeometry relative="1" as="geometry">
            <mxPoint x="330" y="180" as="sourcePoint" />
            <mxPoint x="490" y="180" as="targetPoint" />
          </mxGeometry>
        </mxCell>
        <mxCell id="CSlSsVyFQcHGm--J2eXU-128" value="" style="endArrow=none;html=1;rounded=0;" edge="1" parent="1" source="CSlSsVyFQcHGm--J2eXU-4" target="CSlSsVyFQcHGm--J2eXU-16">
          <mxGeometry relative="1" as="geometry">
            <mxPoint x="330" y="180" as="sourcePoint" />
            <mxPoint x="490" y="180" as="targetPoint" />
          </mxGeometry>
        </mxCell>
        <mxCell id="CSlSsVyFQcHGm--J2eXU-129" value="" style="endArrow=none;html=1;rounded=0;" edge="1" parent="1" source="CSlSsVyFQcHGm--J2eXU-4" target="CSlSsVyFQcHGm--J2eXU-18">
          <mxGeometry relative="1" as="geometry">
            <mxPoint x="330" y="180" as="sourcePoint" />
            <mxPoint x="490" y="180" as="targetPoint" />
          </mxGeometry>
        </mxCell>
        <mxCell id="CSlSsVyFQcHGm--J2eXU-130" value="" style="endArrow=none;html=1;rounded=0;" edge="1" parent="1" source="CSlSsVyFQcHGm--J2eXU-4" target="CSlSsVyFQcHGm--J2eXU-17">
          <mxGeometry relative="1" as="geometry">
            <mxPoint x="330" y="180" as="sourcePoint" />
            <mxPoint x="490" y="180" as="targetPoint" />
          </mxGeometry>
        </mxCell>
        <mxCell id="CSlSsVyFQcHGm--J2eXU-131" value="" style="endArrow=none;html=1;rounded=0;" edge="1" parent="1" source="CSlSsVyFQcHGm--J2eXU-28" target="CSlSsVyFQcHGm--J2eXU-5">
          <mxGeometry relative="1" as="geometry">
            <mxPoint x="330" y="180" as="sourcePoint" />
            <mxPoint x="490" y="180" as="targetPoint" />
          </mxGeometry>
        </mxCell>
        <mxCell id="CSlSsVyFQcHGm--J2eXU-132" value="" style="endArrow=none;html=1;rounded=0;" edge="1" parent="1" source="CSlSsVyFQcHGm--J2eXU-5" target="CSlSsVyFQcHGm--J2eXU-29">
          <mxGeometry relative="1" as="geometry">
            <mxPoint x="330" y="180" as="sourcePoint" />
            <mxPoint x="490" y="180" as="targetPoint" />
          </mxGeometry>
        </mxCell>
        <mxCell id="CSlSsVyFQcHGm--J2eXU-133" value="" style="endArrow=none;html=1;rounded=0;" edge="1" parent="1" source="CSlSsVyFQcHGm--J2eXU-5" target="CSlSsVyFQcHGm--J2eXU-30">
          <mxGeometry relative="1" as="geometry">
            <mxPoint x="330" y="180" as="sourcePoint" />
            <mxPoint x="490" y="180" as="targetPoint" />
          </mxGeometry>
        </mxCell>
      </root>
    </mxGraphModel>
  </diagram>
</mxfile>
